<svg xmlns="http://www.w3.org/2000/svg" xmlns:xlink="http://www.w3.org/1999/xlink" width="64" zoomAndPan="magnify" viewBox="0 0 48 48" height="64" preserveAspectRatio="xMidYMid meet" version="1.0"><defs><clipPath id="264e33e7d6"><path d="M 0.488281 0 L 47.507812 0 L 47.507812 47.019531 L 0.488281 47.019531 Z M 0.488281 0 " clip-rule="nonzero"/></clipPath></defs><g clip-path="url(#264e33e7d6)"><path fill="#ffffff" d="M 0.488281 0 L 47.511719 0 L 47.511719 47.019531 L 0.488281 47.019531 Z M 0.488281 0 " fill-opacity="1" fill-rule="nonzero"/><path fill="#ffffff" d="M 0.488281 0 L 47.511719 0 L 47.511719 47.019531 L 0.488281 47.019531 Z M 0.488281 0 " fill-opacity="1" fill-rule="nonzero"/><path fill="#f38f9a" d="M 0.488281 0 L 47.511719 0 L 47.511719 47.019531 L 0.488281 47.019531 Z M 0.488281 0 " fill-opacity="1" fill-rule="nonzero"/></g><path fill="#ffffff" d="M 37.132812 24.210938 C 37.132812 24.570312 37.0625 24.917969 36.921875 25.253906 C 36.785156 25.589844 36.585938 25.882812 36.332031 26.140625 C 36.074219 26.394531 35.78125 26.59375 35.445312 26.730469 C 35.109375 26.871094 34.761719 26.941406 34.402344 26.941406 C 34.039062 26.941406 33.691406 26.871094 33.355469 26.730469 C 33.023438 26.59375 32.726562 26.394531 32.46875 26.140625 C 32.214844 25.882812 32.015625 25.589844 31.878906 25.253906 C 31.738281 24.917969 31.671875 24.570312 31.671875 24.210938 C 31.671875 23.847656 31.738281 23.5 31.878906 23.164062 C 32.015625 22.828125 32.214844 22.535156 32.46875 22.277344 C 32.726562 22.023438 33.023438 21.824219 33.355469 21.6875 C 33.691406 21.546875 34.039062 21.480469 34.402344 21.480469 C 34.761719 21.480469 35.109375 21.546875 35.445312 21.6875 C 35.78125 21.824219 36.074219 22.023438 36.332031 22.277344 C 36.585938 22.535156 36.785156 22.828125 36.921875 23.164062 C 37.0625 23.5 37.132812 23.847656 37.132812 24.210938 Z M 37.132812 24.210938 " fill-opacity="1" fill-rule="nonzero"/><path fill="#ffffff" d="M 24.519531 24.195312 C 24.507812 24.203125 24.5 24.210938 24.492188 24.21875 C 24.347656 24.324219 24.351562 24.539062 24.5 24.640625 C 27.023438 26.445312 29.445312 28.582031 31.535156 30.886719 L 31.539062 30.886719 C 32.996094 32.488281 34.332031 34.25 35.292969 35.847656 C 35.375 35.976562 35.324219 36.152344 35.183594 36.21875 C 34.386719 36.613281 33.558594 36.996094 32.742188 37.347656 C 32.625 37.398438 32.492188 37.355469 32.421875 37.25 C 30.21875 34.007812 27.402344 31.15625 24.351562 28.691406 C 23.378906 27.910156 22.429688 27.210938 21.441406 26.542969 C 21.355469 26.484375 21.242188 26.480469 21.152344 26.539062 C 18.300781 28.363281 14.648438 30.117188 11.714844 30.8125 C 11.558594 30.851562 11.40625 30.738281 11.390625 30.582031 C 11.304688 29.703125 11.199219 28.847656 11.070312 28.015625 C 11.050781 27.886719 11.125 27.765625 11.25 27.726562 C 13.246094 27.078125 15.4375 26.082031 17.695312 24.769531 C 17.875 24.664062 17.871094 24.402344 17.683594 24.304688 C 15.441406 23.152344 13.324219 22.402344 11.503906 22.101562 C 11.363281 22.078125 11.265625 21.953125 11.28125 21.8125 C 11.367188 21.109375 11.433594 20.394531 11.488281 19.6875 C 11.5 19.550781 11.609375 19.445312 11.746094 19.441406 C 14.894531 19.394531 18.023438 20.757812 21.054688 22.4375 C 21.140625 22.484375 21.25 22.480469 21.332031 22.421875 C 25.445312 19.546875 30.210938 14.910156 32.410156 10.84375 C 32.519531 10.644531 32.34375 10.414062 32.125 10.457031 C 25.53125 11.765625 17.414062 11.546875 11.082031 9.140625 C 11.082031 9.140625 11.078125 9.136719 11.074219 9.136719 C 10.882812 9.0625 10.851562 8.804688 11.015625 8.683594 C 11.851562 8.054688 12.683594 7.390625 13.453125 6.726562 C 13.519531 6.671875 13.609375 6.648438 13.691406 6.671875 C 19.796875 8.335938 27.695312 8.304688 33.589844 6.808594 C 33.683594 6.785156 33.785156 6.816406 33.851562 6.890625 C 34.492188 7.617188 35.144531 8.316406 35.796875 8.964844 C 35.851562 9.019531 35.878906 9.09375 35.875 9.167969 C 35.585938 14.035156 29.167969 20.78125 24.519531 24.199219 Z M 24.519531 24.195312 " fill-opacity="1" fill-rule="nonzero"/><path fill="#ffffff" d="M 17.421875 40.152344 C 15.5625 40.136719 13.597656 40.144531 11.738281 40.304688 C 11.515625 40.320312 11.289062 40.339844 11.070312 40.359375 C 10.980469 40.367188 10.941406 40.335938 10.945312 40.261719 C 10.984375 39.308594 10.976562 38.328125 10.925781 37.378906 C 10.910156 37.089844 10.894531 36.804688 10.871094 36.519531 C 10.863281 36.445312 10.898438 36.414062 10.988281 36.421875 C 13.050781 36.5625 15.175781 36.574219 17.257812 36.476562 C 17.308594 36.480469 17.347656 36.496094 17.347656 36.550781 C 17.335938 37.121094 17.332031 37.710938 17.347656 38.304688 C 17.351562 38.921875 17.429688 39.542969 17.433594 40.144531 Z M 17.421875 40.152344 " fill-opacity="1" fill-rule="nonzero"/></svg>