<?xml version="1.0" encoding="UTF-8"?>
<svg id="Layer_2" data-name="Layer 2" xmlns="http://www.w3.org/2000/svg" viewBox="0 0 520.46 520.47">
  <defs>
    <style>
      .cls-1 {
        fill: #fff;
      }

      .cls-2 {
        fill: #080037;
      }

      .cls-3 {
        fill: #f59098;
      }
    </style>
  </defs>
  <g id="Layer_4" data-name="Layer 4">
    <g>
      <path class="cls-1" d="M490.81,162.84c-12.61-29.79-30.66-56.55-53.65-79.55-22.98-22.99-49.74-41.02-79.53-53.63-30.84-13.05-63.62-19.65-97.4-19.65s-66.56,6.6-97.4,19.65c-29.79,12.61-56.55,30.64-79.55,53.63-22.97,23-41.02,49.76-53.63,79.55-13.05,30.84-19.65,63.61-19.65,97.4s6.6,66.56,19.65,97.4c12.61,29.79,30.66,56.55,53.63,79.53,23,22.99,49.76,41.04,79.55,53.63,30.84,13.05,63.61,19.67,97.4,19.67s66.56-6.62,97.4-19.67c29.79-12.59,56.55-30.64,79.53-53.63,22.99-22.98,41.04-49.74,53.65-79.53,13.03-30.84,19.65-63.62,19.65-97.4s-6.62-66.56-19.65-97.4ZM186.12,340.61c-.07-1.24-.14-2.45-.22-3.63,6.3.4,12.83.61,19.44.61,4.79,0,9.67-.11,14.52-.32-.05,3.34-.04,6.18.04,8.84,0,1.89.13,3.78.25,5.61.07,1.14.15,2.24.19,3.32-1.99-.02-3.84-.03-5.6-.03-10.25,0-18.44.29-25.79.91-.96.07-1.84.15-2.67.22.16-5.2.11-10.42-.16-15.53ZM186.96,286.29c11.92-3.89,24.56-9.69,37.56-17.24,1.04-.61,1.67-1.73,1.63-2.93-.03-1.2-.71-2.29-1.77-2.83-13-6.69-25.51-11.15-36.19-12.92.46-3.85.85-7.88,1.17-12,.23-.01.46-.01.69-.01,18.7,0,36.89,8.68,52.23,17.16.48.27,1.04.42,1.6.42.67,0,1.31-.21,1.86-.59,22.54-15.75,51.32-42.82,64.82-67.79.56-1.02.53-2.23-.06-3.22-.59-1-1.68-1.61-2.83-1.61-.22,0-.44.02-.65.06-15.09,2.99-31.65,4.57-47.89,4.57-26.87,0-52.06-4.15-72.88-12.01,4.93-3.72,9.58-7.45,13.84-11.1,17.57,4.77,38.15,7.29,59.51,7.29,20.19,0,39.74-2.24,56.56-6.5,3.72,4.22,7.49,8.24,11.22,11.97-.78,12.33-8.75,28.11-23.07,45.65-11.74,14.39-27.48,29.4-42.12,40.17l-.16.11c-.84.63-1.31,1.6-1.3,2.65.02,1.04.53,2.02,1.38,2.63,14.77,10.56,28.79,23,40.55,35.98.03.04.07.08.11.11,8.31,9.14,15.89,19.14,21.37,28.19-4.51,2.23-9.12,4.36-13.7,6.33-11.88-17.46-27.72-34.25-47.07-49.89-.04-.04-.08-.07-.12-.09-5.51-4.44-11.04-8.52-16.89-12.47-.54-.37-1.18-.56-1.83-.56s-1.24.17-1.77.51c-17.8,11.4-38.45,20.77-53.97,24.51-.49-5-1.11-9.89-1.83-14.55ZM306.48,264.3c0-7.77,6.32-14.1,14.09-14.1s14.09,6.33,14.09,14.1-6.32,14.09-14.09,14.09-14.09-6.32-14.09-14.09Z"/>
      <path class="cls-2" d="M260.23,0C116.51,0,0,116.51,0,260.24s116.51,260.23,260.23,260.23,260.23-116.51,260.23-260.23S403.95,0,260.23,0ZM467.04,399.67c-8.92,13.21-19.17,25.63-30.46,36.92s-23.71,21.54-36.92,30.46c-13.33,9.01-27.58,16.75-42.36,23-30.74,13-63.4,19.59-97.07,19.59s-66.34-6.59-97.08-19.59c-14.77-6.25-29.03-13.99-42.36-23-13.21-8.92-25.63-19.17-36.92-30.46s-21.53-23.71-30.46-36.92c-9-13.33-16.74-27.58-22.99-42.36-13-30.74-19.6-63.4-19.6-97.07s6.6-66.34,19.6-97.08c6.25-14.77,13.99-29.03,22.99-42.36,8.93-13.21,19.17-25.63,30.46-36.92s23.71-21.54,36.92-30.46c13.33-9.01,27.59-16.74,42.36-22.99,30.74-13,63.4-19.6,97.08-19.6s66.33,6.6,97.07,19.6c14.78,6.25,29.03,13.98,42.36,22.99,13.21,8.92,25.63,19.17,36.92,30.46s21.54,23.71,30.46,36.92c9.01,13.33,16.75,27.59,23,42.36,13,30.74,19.59,63.4,19.59,97.08s-6.59,66.33-19.59,97.07c-6.25,14.78-13.99,29.03-23,42.36Z"/>
      <path class="cls-2" d="M50.15,152.9l7.56,4.66c.79.49,1.47.67,2.03.55.56-.12,1.08-.57,1.55-1.33l7.95-12.91,9.39,26.01c.26.88.62,1.63,1.07,2.24.46.61,1.08,1.16,1.87,1.65l8.37,5.16c.79.49,1.47.67,2.03.55.56-.12,1.08-.57,1.55-1.33l18.44-29.91c.47-.76.63-1.43.49-1.99-.14-.56-.61-1.08-1.4-1.57l-7.43-4.58c-.79-.49-1.47-.67-2.03-.55-.56.12-1.08.57-1.55,1.33l-8.88,14.41-8.92-24.81c-.26-.88-.62-1.63-1.07-2.24-.45-.61-1.1-1.18-1.93-1.69l-9.3-5.74c-.79-.49-1.47-.67-2.03-.55-.56.12-1.08.57-1.55,1.33l-17.1,27.74c-.47.76-.63,1.43-.49,1.99.14.56.61,1.08,1.4,1.57Z"/>
      <path class="cls-2" d="M94.25,116.52c1.09,2.49,2.13,4.57,3.14,6.25,1,1.68,2.01,3.05,3.03,4.11l13.46,13.92c.65.67,1.26,1.01,1.84,1.03.58.02,1.19-.28,1.83-.91l7.49-7.24c.64-.62.97-1.22.97-1.8,0-.58-.32-1.2-.97-1.87l-7.14-7.38,9.01-8.72,7.14,7.38c.65.67,1.27,1,1.89.98.61-.01,1.26-.35,1.94-1l7.69-7.44c.64-.62.97-1.22.97-1.8,0-.58-.32-1.2-.97-1.87l-13.46-13.92c-1.02-1.05-2.35-2.11-4-3.17-1.65-1.06-3.7-2.17-6.14-3.35l-16.01-7.69c-.78-.4-1.52-.54-2.22-.41-.7.13-1.37.51-2.01,1.13l-13.7,13.25c-.68.66-1.09,1.33-1.25,2.02-.15.69-.04,1.44.33,2.23l7.14,16.25ZM103.87,100.39l1.27-1.23c.2-.2.45-.3.74-.31.29,0,.65.08,1.1.27l10.14,5.7-8,7.73-5.36-10.33c-.17-.45-.25-.82-.23-1.1.02-.29.13-.53.33-.73Z"/>
      <path class="cls-2" d="M150.31,106.18c.43.82.93,1.32,1.48,1.5.55.18,1.22.06,2.01-.36l9.33-4.94c.79-.42,1.27-.91,1.43-1.46.16-.55.02-1.24-.41-2.06l-12.08-22.82,7.43,5.11c.76.54,1.49.83,2.19.88.69.05,1.44-.14,2.23-.56l2.5-1.33c.79-.42,1.36-.93,1.71-1.53.35-.6.52-1.37.51-2.3l-.05-9.02,12.08,22.82c.43.82.93,1.32,1.48,1.5.55.18,1.22.06,2.01-.36l9.64-5.1c.79-.42,1.27-.91,1.43-1.46.16-.55.02-1.24-.41-2.06l-22.24-42.01c-.43-.82-.93-1.32-1.48-1.5-.55-.18-1.22-.06-2.01.36l-10.14,5.37c-.67.35-1.14.8-1.42,1.33-.28.53-.42,1.25-.43,2.14l.02,13.52c0,.5-.03.88-.09,1.12-.06.25-.21.44-.46.57l-.56.3c-.25.13-.49.15-.73.06-.24-.09-.56-.28-.98-.56l-11.23-7.58c-.74-.49-1.41-.77-2.01-.84-.6-.07-1.23.07-1.9.42l-10.08,5.34c-.79.42-1.27.91-1.43,1.46-.16.56-.02,1.24.41,2.06l22.24,42.01Z"/>
      <path class="cls-2" d="M201.94,80.87c.2.91.53,1.52,1.01,1.85.48.32,1.16.39,2.04.2l10.73-2.31c.88-.19,1.47-.53,1.77-1.02.3-.49.36-1.19.16-2.1l-2.57-11.9,7.96-1.72c6.28-1.35,10.29-3.57,12.05-6.65,1.75-3.08,2.18-6.7,1.28-10.86l-1.98-9.18c-.9-4.16-2.78-7.28-5.64-9.36-2.87-2.08-7.44-2.45-13.72-1.09l-21.19,4.57c-.88.19-1.47.53-1.77,1.02-.3.49-.36,1.19-.16,2.1l10.02,46.47ZM216.07,40.53c1.34-.29,2.29-.12,2.86.51.57.63.95,1.4,1.15,2.3l.82,3.8c.2.91.16,1.77-.1,2.57-.26.81-1.06,1.35-2.4,1.64l-6.23,1.34-2.33-10.83,6.23-1.34Z"/>
      <path class="cls-2" d="M249.6,74.9l32.86.94c.9.03,1.55-.16,1.97-.57.41-.4.63-1.07.66-2l.25-8.58c.03-.93-.16-1.61-.54-2.03-.39-.43-1.03-.65-1.93-.68l-19.54-.56.18-6.31,13.81.4c.9.03,1.55-.16,1.97-.57.41-.4.63-1.07.66-2l.23-7.85c.03-.93-.16-1.61-.54-2.03-.39-.43-1.03-.65-1.93-.68l-13.81-.4.16-5.65,19.54.56c.9.03,1.55-.16,1.97-.57.41-.4.63-1.07.66-2l.25-8.58c.03-.93-.16-1.61-.54-2.03-.39-.43-1.03-.65-1.93-.68l-32.86-.94c-.9-.03-1.55.16-1.97.57-.41.4-.63,1.07-.66,2l-1.36,47.51c-.03.93.15,1.61.54,2.03.39.43,1.03.65,1.93.68Z"/>
      <path class="cls-2" d="M292.84,77.24l10.49,2.98c.86.25,1.54.22,2.04-.07.5-.29.88-.88,1.13-1.78l3.93-13.83,9.54,2.71c.95.27,1.55.71,1.8,1.31.24.6.22,1.42-.07,2.46l-3.07,10.8c-.25.89-.25,1.6.03,2.11.27.51.84.89,1.7,1.13l10.56,3c.86.25,1.54.22,2.04-.07.5-.29.88-.88,1.13-1.78l4.25-14.96c.84-2.96.76-5.55-.26-7.78-1.01-2.22-2.71-3.82-5.08-4.8,1.58-.21,2.85-.93,3.82-2.16.96-1.23,1.72-2.83,2.29-4.8l.92-3.25c.99-3.48.83-6.59-.48-9.33-1.31-2.74-4.51-4.83-9.59-6.27l-22.69-6.45c-.86-.25-1.55-.22-2.04.07-.5.29-.88.88-1.13,1.78l-13,45.72c-.25.89-.25,1.6.03,2.11.27.51.84.89,1.7,1.13ZM316.62,42.82l5.11,1.45c1.18.34,1.89.88,2.11,1.63s.21,1.6-.06,2.54l-.68,2.4c-.27.94-.7,1.67-1.29,2.19s-1.47.61-2.66.27l-5.11-1.45,2.57-9.03Z"/>
      <path class="cls-2" d="M337.57,90.66c.14.56.6,1.06,1.38,1.51l26.2,14.98c.78.45,1.45.59,2,.43.55-.16,1.06-.65,1.52-1.45l4.33-7.58c.46-.81.62-1.49.48-2.05-.14-.56-.6-1.06-1.38-1.51l-5.96-3.41,12.24-21.4,5.96,3.41c.78.44,1.45.59,2,.43.55-.16,1.06-.65,1.52-1.45l4.41-7.7c.46-.81.62-1.49.48-2.05-.14-.56-.6-1.06-1.38-1.51l-26.2-14.98c-.78-.45-1.45-.59-2-.43-.56.16-1.06.65-1.52,1.45l-4.41,7.7c-.46.81-.62,1.49-.48,2.05.14.56.6,1.06,1.38,1.51l6.09,3.48-12.24,21.4-6.09-3.48c-.78-.45-1.45-.59-2-.43-.56.16-1.06.65-1.52,1.45l-4.33,7.58c-.46.81-.62,1.49-.48,2.05Z"/>
      <path class="cls-2" d="M373.19,111.46c0,.58.33,1.18.98,1.8l7.67,7.35c.65.62,1.26.92,1.84.9.58-.02,1.19-.37,1.83-1.04l16.75-17.48-1.76,19.34-6.24,6.52c-.64.67-.96,1.3-.96,1.87,0,.58.33,1.18.98,1.8l7.67,7.35c.65.62,1.26.92,1.84.9.58-.02,1.19-.37,1.83-1.04l32.88-34.32c.64-.67.96-1.3.96-1.87,0-.58-.33-1.18-.98-1.8l-7.67-7.35c-.65-.62-1.26-.92-1.84-.9-.58.02-1.19.37-1.83,1.04l-10.81,11.28,1.34-21.27c.06-.95-.03-1.76-.29-2.41-.26-.65-.71-1.29-1.36-1.91l-5.32-5.1c-.65-.62-1.26-.92-1.84-.9-.58.02-1.19.37-1.83,1.04l-32.88,34.32c-.64.67-.96,1.3-.96,1.87Z"/>
      <path class="cls-2" d="M414.59,143.04c-1.24,1.49-2,3.27-2.27,5.33-.27,2.06.02,4.52.87,7.37.85,2.85,2.41,6.15,4.67,9.92,2.26,3.77,4.44,6.68,6.54,8.76,2.1,2.07,4.12,3.47,6.07,4.2,1.95.73,3.87.9,5.78.5,1.9-.4,3.81-1.18,5.74-2.33l21.44-12.88c1.93-1.16,3.51-2.48,4.76-3.97,1.24-1.49,2.01-3.27,2.31-5.35.29-2.08.02-4.53-.82-7.36-.84-2.83-2.39-6.12-4.66-9.89-2.26-3.77-4.45-6.69-6.56-8.79-2.11-2.09-4.15-3.5-6.12-4.21-1.97-.72-3.91-.88-5.81-.48-1.9.4-3.82,1.18-5.74,2.33l-21.44,12.88c-1.93,1.16-3.51,2.48-4.76,3.97ZM428.33,153.67c.2-.95.72-1.67,1.56-2.18l16.92-10.16c.8-.48,1.66-.58,2.59-.32.93.27,2.05,1.49,3.37,3.68,1.31,2.19,1.87,3.75,1.67,4.7-.2.95-.7,1.66-1.5,2.14l-16.92,10.16c-.84.5-1.72.62-2.65.35-.93-.27-2.05-1.49-3.37-3.68-1.31-2.19-1.87-3.75-1.67-4.7Z"/>
      <path class="cls-2" d="M56.6,355.69c.18-.39.14-.9-.1-1.52l-3.91-9.84c-.4-1.01-.51-1.84-.31-2.48.19-.64.71-1.13,1.56-1.47l12.06-4.79c.84-.34,1.57-.34,2.19-.02.62.32,1.13.99,1.53,2l3.91,9.84c.25.62.57,1.01.97,1.17.4.16.92.12,1.56-.14l6.13-2.44c.64-.25,1.05-.58,1.23-.97.18-.39.14-.9-.1-1.52l-4.74-11.94c-1.62-4.08-3.68-6.77-6.17-8.06-2.49-1.3-5.49-1.25-9.01.15l-15.76,6.26c-3.51,1.4-5.72,3.42-6.63,6.06-.91,2.64-.55,6.01,1.07,10.08l4.74,11.94c.25.62.57,1.01.97,1.17.4.16.92.12,1.56-.14l6.03-2.4c.64-.25,1.05-.58,1.23-.97Z"/>
      <path class="cls-2" d="M85.48,387.13c.55-1.73.42-3.45-.39-5.18.97.68,2.03.92,3.18.72,1.14-.19,2.36-.69,3.66-1.5l2.13-1.32c2.29-1.42,3.75-3.21,4.4-5.37.65-2.16-.06-4.91-2.14-8.25l-9.25-14.9c-.35-.57-.74-.9-1.16-.99-.42-.09-.92.05-1.51.41l-30.02,18.63c-.59.36-.93.75-1.04,1.17-.11.42.02.91.37,1.47l4.28,6.89c.35.57.74.9,1.16.99.42.09.92-.05,1.51-.41l9.08-5.63,3.89,6.26c.39.63.5,1.17.33,1.62-.17.45-.59.89-1.27,1.31l-7.09,4.4c-.59.36-.93.75-1.04,1.17-.11.42.02.91.37,1.47l4.3,6.94c.35.57.74.9,1.16.99.42.09.92-.05,1.51-.41l9.82-6.09c1.95-1.21,3.2-2.67,3.75-4.4ZM80.16,372.05l-2.08-3.36,5.93-3.68,2.08,3.36c.48.78.6,1.43.35,1.95s-.68.98-1.3,1.37l-1.58.98c-.62.38-1.22.57-1.8.56-.58,0-1.12-.4-1.6-1.18Z"/>
      <path class="cls-2" d="M110.75,410.47c.51-.46.78-.91.81-1.34.03-.43-.18-.89-.63-1.38l-6.91-7.6,3.11-2.83,9.78,10.75c.45.49.89.75,1.32.76.43.01.9-.21,1.41-.68l4.72-4.29c.51-.46.78-.91.81-1.34.03-.43-.18-.89-.63-1.38l-16.44-18.07c-.45-.49-.89-.75-1.32-.76-.43-.01-.9.21-1.41.68l-26.13,23.78c-.51.46-.78.91-.81,1.34-.03.43.18.89.63,1.38l16.44,18.07c.45.49.89.75,1.32.76.43.01.9-.21,1.41-.68l4.72-4.29c.51-.46.78-.91.81-1.34.03-.43-.18-.89-.63-1.38l-9.78-10.75,3.47-3.16,6.91,7.6c.45.49.89.75,1.32.76.43.01.9-.21,1.41-.68l4.32-3.93Z"/>
      <path class="cls-2" d="M148.71,421.22c-.17-.5-.53-.95-1.06-1.35l-11.28-8.57c-.56-.43-1.1-.65-1.63-.69-.53-.03-1.06.13-1.6.5l-11.14,7.08c-1.7,1.08-3.12,2.08-4.24,3.01-1.12.93-2.02,1.82-2.68,2.69l-8.71,11.46c-.42.55-.6,1.04-.55,1.46.05.43.34.84.87,1.25l6.16,4.69c.53.4,1.01.57,1.43.51.42-.06.85-.37,1.26-.92l4.62-6.08,7.42,5.64-4.62,6.08c-.42.55-.59,1.05-.51,1.5.08.45.4.88.96,1.31l6.33,4.81c.53.4,1.01.57,1.43.51.42-.06.85-.37,1.26-.92l8.71-11.46c.66-.87,1.29-1.97,1.88-3.3.59-1.33,1.18-2.96,1.77-4.89l3.85-12.63c.21-.62.22-1.18.05-1.67ZM136.24,425.57l-3.05,8.1-6.58-5,6.99-5.1c.31-.18.57-.27.79-.29.21-.02.4.03.57.16l1.05.8c.17.13.27.3.31.51.04.21.01.49-.07.84Z"/>
      <path class="cls-2" d="M179,449.33c.41-.14.77-.51,1.09-1.12l3.04-5.85c.32-.61.42-1.13.29-1.54-.12-.41-.48-.77-1.07-1.08l-24.67-12.83c-.59-.31-1.09-.39-1.5-.26-.41.14-.77.51-1.09,1.12l-3.04,5.85c-.32.61-.42,1.13-.29,1.54.12.41.48.77,1.07,1.08l6.87,3.57-12.35,23.75c-.32.61-.42,1.13-.29,1.54.12.41.48.77,1.07,1.08l7.57,3.94c.59.31,1.09.39,1.5.26.41-.14.77-.51,1.09-1.12l12.35-23.75,6.87,3.57c.59.31,1.09.39,1.5.26Z"/>
      <path class="cls-2" d="M210.09,449.17l-21.32-6.98c-.63-.21-1.14-.21-1.52-.01-.38.2-.68.63-.89,1.29l-2.05,6.27c-.22.66-.23,1.18-.04,1.56.19.39.6.68,1.23.89l4.95,1.62-5.7,17.41-4.95-1.62c-.63-.21-1.14-.21-1.52-.01-.38.2-.68.63-.89,1.29l-2.02,6.17c-.22.66-.23,1.18-.04,1.56.19.39.6.68,1.23.89l21.32,6.98c.63.21,1.14.21,1.52.01.38-.2.68-.63.89-1.29l2.02-6.17c.21-.66.23-1.18.04-1.56-.19-.39-.6-.68-1.23-.89l-4.85-1.59,5.7-17.41,4.85,1.59c.63.21,1.14.21,1.52.01.38-.2.68-.63.89-1.29l2.05-6.27c.21-.66.23-1.18.04-1.56-.19-.39-.6-.68-1.23-.89Z"/>
      <path class="cls-2" d="M246.85,455.49l-8.18-1.18c-.66-.1-1.16-.01-1.5.25-.34.26-.56.74-.66,1.42l-2.14,14.84c-.05.36-.14.71-.26,1.06-.12.35-.28.71-.48,1.09l-3.55,7.26c-.16.35-.31.57-.47.68-.16.11-.38.14-.65.1l-.57-.08c-.28-.04-.48-.13-.6-.28-.12-.15-.21-.41-.26-.78l-1.36-7.91c-.08-.42-.13-.81-.15-1.18-.02-.37,0-.73.05-1.09l2.15-14.9c.1-.68,0-1.2-.31-1.56-.3-.36-.79-.58-1.45-.68l-8.29-1.19c-.66-.1-1.16-.01-1.5.25-.34.26-.56.74-.66,1.42l-2.05,14.25c-.12.86-.2,1.6-.24,2.2s-.02,1.18.04,1.74c.06.56.15,1.15.28,1.78.12.62.28,1.35.48,2.19l3.2,13.96c.14.72.42,1.24.81,1.55.4.31.93.52,1.59.61l13.55,1.95c.66.1,1.22.05,1.7-.14.47-.19.88-.61,1.22-1.26l7.01-12.49c.43-.75.79-1.4,1.08-1.97.29-.56.55-1.11.77-1.62.22-.52.39-1.07.53-1.66.14-.59.27-1.31.39-2.17l2.05-14.25c.1-.68.02-1.2-.23-1.55-.25-.35-.71-.57-1.37-.67Z"/>
      <path class="cls-2" d="M283.06,484.15c-.31-.3-.8-.43-1.46-.41l-14.52.55-.18-4.69,10.26-.39c.67-.03,1.14-.2,1.43-.52.29-.32.42-.82.39-1.52l-.22-5.83c-.03-.69-.19-1.18-.5-1.48-.31-.3-.8-.43-1.46-.41l-10.26.39-.16-4.2,14.52-.55c.67-.03,1.14-.2,1.43-.52.29-.32.42-.82.39-1.52l-.24-6.37c-.03-.69-.19-1.18-.5-1.48-.31-.3-.8-.43-1.46-.41l-24.42.92c-.67.03-1.14.2-1.43.52-.29.32-.42.83-.39,1.52l1.34,35.31c.03.69.19,1.18.5,1.48.31.3.8.43,1.46.41l24.42-.92c.67-.03,1.14-.2,1.43-.52.29-.32.42-.82.39-1.52l-.24-6.37c-.03-.69-.19-1.18-.5-1.48Z"/>
      <path class="cls-2" d="M335.21,466.68c-.85-2.93-2.18-4.82-3.99-5.66-1.81-.84-3.95-1.09-6.41-.76l-7.84,1.13c-.45.09-.84.01-1.16-.23-.33-.25-.56-.6-.69-1.05-.13-.45-.12-.86.03-1.23.15-.36.44-.61.88-.74l11.79-3.4c.64-.18,1.06-.47,1.26-.85.2-.38.21-.9.01-1.56l-1.8-6.23c-.19-.66-.47-1.1-.85-1.32-.37-.21-.88-.23-1.52-.04l-14.17,4.09c-3.27.94-5.61,2.48-7,4.6-1.4,2.12-1.67,4.67-.81,7.64l1.59,5.5c.85,2.93,2.17,4.82,3.96,5.67,1.8.84,3.93,1.1,6.39.77l7.91-1.09c.45-.09.82-.03,1.12.19.3.22.54.62.71,1.21.12.42.11.81-.02,1.17-.13.36-.42.6-.86.73l-13.61,3.93c-.64.19-1.06.47-1.26.85-.2.38-.21.9-.01,1.57l1.77,6.13c.19.66.47,1.1.85,1.32.37.21.88.23,1.52.04l15.99-4.61c3.24-.93,5.56-2.46,6.98-4.59,1.41-2.13,1.69-4.68.84-7.65l-1.59-5.5Z"/>
      <path class="cls-2" d="M354.75,443.02l6.98-3.35c.6-.29.97-.64,1.1-1.05.13-.41.05-.92-.25-1.55l-2.86-5.95c-.3-.62-.65-1.01-1.05-1.16-.4-.15-.91-.08-1.51.21l-25.06,12.05c-.6.29-.97.64-1.1,1.05-.14.41-.05.92.25,1.55l2.86,5.95c.3.62.65,1.01,1.05,1.16.4.15.9.08,1.51-.21l6.98-3.35,11.6,24.13c.3.62.65,1.01,1.05,1.16.4.15.9.08,1.51-.21l7.69-3.7c.6-.29.97-.64,1.1-1.05.13-.41.05-.92-.25-1.55l-11.6-24.13Z"/>
      <path class="cls-2" d="M405.54,431.68l-15.89-21.82c-.41-.56-.82-.87-1.24-.95-.42-.07-.9.09-1.44.48l-6.47,4.71c-.54.39-.84.8-.9,1.23-.06.43.11.92.52,1.48l14.64,20.1c.43.59.57,1.23.44,1.94-.14.71-.96,1.61-2.46,2.7-1.48,1.08-2.57,1.57-3.29,1.48-.71-.09-1.29-.42-1.71-1.01l-14.64-20.1c-.41-.56-.82-.87-1.24-.95-.42-.07-.9.09-1.44.48l-6.68,4.87c-.54.39-.84.8-.9,1.23-.06.43.11.92.52,1.48l15.89,21.82c.98,1.35,2.07,2.44,3.26,3.26,1.19.82,2.55,1.27,4.1,1.33,1.55.07,3.33-.3,5.35-1.1,2.02-.8,4.35-2.16,6.99-4.08,2.64-1.92,4.65-3.72,6.03-5.41s2.28-3.27,2.69-4.76c.41-1.49.41-2.93-.01-4.31-.42-1.38-1.12-2.75-2.11-4.1Z"/>
      <path class="cls-2" d="M435.83,399.24l-12.52-11.52c-2.78-2.56-5.56-3.67-8.34-3.34-2.78.33-5.65,2.11-8.62,5.34l-12.02,13.06c-.45.49-.66.95-.64,1.38.03.43.29.88.8,1.34l26,23.93c.51.47.98.7,1.41.69.43,0,.87-.26,1.32-.75l12.02-13.06c2.97-3.23,4.51-6.24,4.61-9.03.1-2.79-1.24-5.47-4.02-8.03ZM426.7,410.37l-4.24,4.61-13.64-12.55,4.24-4.61c.57-.62,1.15-.94,1.73-.95.58-.01,1.21.29,1.87.9l9.75,8.97c.67.62,1.03,1.22,1.07,1.81.05.59-.21,1.2-.78,1.82Z"/>
      <path class="cls-2" d="M463.35,374.08l-5.48-3.48c-.58-.37-1.08-.51-1.51-.43-.42.09-.81.41-1.17.97l-2.74,4.31-15.46-9.83,2.74-4.31c.36-.56.49-1.05.39-1.47-.1-.42-.44-.81-1.03-1.18l-5.57-3.54c-.58-.37-1.08-.51-1.51-.43-.42.09-.81.41-1.17.97l-12.04,18.93c-.36.56-.49,1.05-.39,1.47.1.42.44.81,1.03,1.18l5.57,3.54c.58.37,1.09.51,1.51.43.42-.09.81-.41,1.17-.97l2.8-4.4,15.46,9.83-2.8,4.4c-.36.56-.49,1.05-.39,1.47.1.42.44.81,1.03,1.18l5.48,3.48c.58.37,1.09.51,1.51.43.42-.09.81-.41,1.17-.97l12.04-18.93c.36-.56.49-1.05.39-1.47-.1-.42-.44-.81-1.03-1.18Z"/>
      <path class="cls-2" d="M477.53,333.12c-1.08-.96-2.39-1.76-3.94-2.39l-17.19-7.09c-1.55-.64-3.04-1-4.48-1.08-1.44-.08-2.85.25-4.22.99-1.37.75-2.71,2-4.03,3.75-1.31,1.76-2.59,4.14-3.84,7.16-1.25,3.02-2.02,5.62-2.34,7.81-.31,2.19-.25,4.03.2,5.52.45,1.49,1.21,2.72,2.29,3.68,1.08.96,2.39,1.76,3.94,2.39l17.19,7.09c1.55.64,3.04,1,4.48,1.08,1.44.08,2.84-.25,4.19-1.01,1.35-.75,2.69-2.01,4.01-3.79,1.32-1.77,2.6-4.17,3.85-7.18,1.25-3.02,2.02-5.61,2.33-7.78.31-2.17.25-4-.18-5.49-.43-1.49-1.18-2.71-2.26-3.67ZM467.92,346.05c-.72,1.75-1.41,2.78-2.07,3.08-.65.3-1.32.31-1.99.03l-13.56-5.6c-.64-.26-1.08-.73-1.34-1.41-.25-.67-.02-1.89.71-3.64.72-1.75,1.41-2.78,2.07-3.08s1.3-.32,1.94-.05l13.56,5.6c.67.28,1.13.75,1.39,1.43s.02,1.89-.71,3.64Z"/>
      <path class="cls-2" d="M260.23,86.81c-95.78,0-173.43,77.64-173.43,173.43s77.65,173.43,173.43,173.43,173.43-77.65,173.43-173.43-77.65-173.43-173.43-173.43ZM375.2,375.21c-14.93,14.94-32.32,26.67-51.68,34.85-20.04,8.48-41.34,12.78-63.29,12.78s-43.25-4.3-63.29-12.78c-19.36-8.18-36.75-19.91-51.69-34.85-14.93-14.93-26.66-32.32-34.85-51.68-8.48-20.04-12.77-41.34-12.77-63.29s4.29-43.25,12.77-63.29c8.19-19.36,19.92-36.75,34.85-51.69,14.94-14.94,32.33-26.66,51.69-34.85,20.04-8.48,41.33-12.77,63.29-12.77s43.25,4.29,63.29,12.77c19.36,8.19,36.75,19.91,51.68,34.85,14.94,14.94,26.67,32.33,34.86,51.69,8.47,20.04,12.77,41.33,12.77,63.29s-4.3,43.25-12.77,63.29c-8.19,19.36-19.92,36.75-34.86,51.68Z"/>
      <path class="cls-2" d="M320.57,243.69c-11.36,0-20.6,9.25-20.6,20.61s9.24,20.6,20.6,20.6,20.6-9.24,20.6-20.6-9.24-20.61-20.6-20.61ZM320.57,278.39c-7.77,0-14.09-6.32-14.09-14.09s6.32-14.1,14.09-14.1,14.09,6.33,14.09,14.1-6.32,14.09-14.09,14.09Z"/>
      <path class="cls-3" d="M334.66,264.3c0,7.77-6.32,14.09-14.09,14.09s-14.09-6.32-14.09-14.09,6.32-14.1,14.09-14.1,14.09,6.33,14.09,14.1Z"/>
      <path class="cls-2" d="M309.36,226.78c10.61-13.01,23.49-32.16,24.52-49.49.11-1.79-.56-3.55-1.84-4.83-3.68-3.67-7.41-7.64-11.09-11.82-1.19-1.36-2.91-2.13-4.71-2.13-.52,0-1.04.06-1.55.19-16.33,4.14-35.38,6.33-55.09,6.33-20.84,0-40.87-2.45-57.92-7.09-.54-.15-1.1-.22-1.66-.22-1.49,0-2.94.53-4.08,1.51-4.26,3.66-8.94,7.41-13.92,11.15-1.83,1.38-2.77,3.64-2.45,5.91.29,2.09,1.6,3.88,3.51,4.79.15.08.32.15.49.22,21.62,8.22,47.75,12.57,75.56,12.57,14.15,0,28.65-1.18,42.2-3.43-14.48,23.03-39.58,45.49-57.67,58.41-15.56-8.49-34-17-53.61-17-.33,0-.66,0-1,0-3.27.05-5.92,2.55-6.17,5.82-.32,4.17-.71,8.25-1.18,12.13-.4,3.35,1.91,6.4,5.24,6.95,8.56,1.4,18.53,4.71,29.02,9.64-10.79,5.91-21.28,10.53-31.2,13.76-2.95.96-4.74,3.88-4.26,6.95.73,4.66,1.34,9.57,1.84,14.6.31,3.25,3,5.69,6.25,5.69.49,0,.98-.05,1.45-.17,15.63-3.71,36.39-12.98,54.42-24.27,5.1,3.51,9.95,7.13,14.81,11.04.07.05.13.1.19.15,18.82,15.24,34.19,31.55,45.69,48.48,1.17,1.73,3.12,2.76,5.21,2.76.85,0,1.68-.17,2.47-.5,4.82-2.07,9.66-4.31,14.4-6.66,1.58-.78,2.76-2.19,3.25-3.87.5-1.69.26-3.51-.64-5.01-5.72-9.5-13.66-19.99-22.36-29.53-.05-.06-.11-.13-.17-.18-11.06-12.18-24.11-23.94-37.86-34.13,14.01-10.78,28.8-25.12,39.91-38.73ZM262.19,262.83l-.16.11c-.84.63-1.31,1.6-1.3,2.65.02,1.04.53,2.02,1.38,2.63,14.77,10.56,28.79,23,40.55,35.98.03.04.07.08.11.11,8.31,9.14,15.89,19.14,21.37,28.19-4.51,2.23-9.12,4.36-13.7,6.33-11.88-17.46-27.72-34.25-47.07-49.89-.04-.04-.08-.07-.12-.09-5.51-4.44-11.04-8.52-16.89-12.47-.54-.37-1.18-.56-1.83-.56s-1.24.17-1.77.51c-17.8,11.4-38.45,20.77-53.97,24.51-.49-5-1.11-9.89-1.83-14.55,11.92-3.89,24.56-9.69,37.56-17.24,1.04-.61,1.67-1.73,1.63-2.93-.03-1.2-.71-2.29-1.77-2.83-13-6.69-25.51-11.15-36.19-12.92.46-3.85.85-7.88,1.17-12,.23-.01.46-.01.69-.01,18.7,0,36.89,8.68,52.23,17.16.48.27,1.04.42,1.6.42.67,0,1.31-.21,1.86-.59,22.54-15.75,51.32-42.82,64.82-67.79.56-1.02.53-2.23-.06-3.22-.59-1-1.68-1.61-2.83-1.61-.22,0-.44.02-.65.06-15.09,2.99-31.65,4.57-47.89,4.57-26.87,0-52.06-4.15-72.88-12.01,4.93-3.72,9.58-7.45,13.84-11.1,17.57,4.77,38.15,7.29,59.51,7.29,20.19,0,39.74-2.24,56.56-6.5,3.72,4.22,7.49,8.24,11.22,11.97-.78,12.33-8.75,28.11-23.07,45.65-11.74,14.39-27.48,29.4-42.12,40.17Z"/>
      <path class="cls-3" d="M302.77,304.31c8.31,9.14,15.89,19.14,21.37,28.19-4.51,2.23-9.12,4.36-13.7,6.33-11.88-17.46-27.72-34.25-47.07-49.89-.04-.04-.08-.07-.12-.09-5.51-4.44-11.04-8.52-16.89-12.47-.54-.37-1.18-.56-1.83-.56s-1.24.17-1.77.51c-17.8,11.4-38.45,20.77-53.97,24.51-.49-5-1.11-9.89-1.83-14.55,11.92-3.89,24.56-9.69,37.56-17.24,1.04-.61,1.67-1.73,1.63-2.93-.03-1.2-.71-2.29-1.77-2.83-13-6.69-25.51-11.15-36.19-12.92.46-3.85.85-7.88,1.17-12,.23-.01.46-.01.69-.01,18.7,0,36.89,8.68,52.23,17.16.48.27,1.04.42,1.6.42.67,0,1.31-.21,1.86-.59,22.54-15.75,51.32-42.82,64.82-67.79.56-1.02.53-2.23-.06-3.22-.59-1-1.68-1.61-2.83-1.61-.22,0-.44.02-.65.06-15.09,2.99-31.65,4.57-47.89,4.57-26.87,0-52.06-4.15-72.88-12.01,4.93-3.72,9.58-7.45,13.84-11.1,17.57,4.77,38.15,7.29,59.51,7.29,20.19,0,39.74-2.24,56.56-6.5,3.72,4.22,7.49,8.24,11.22,11.97-.78,12.33-8.75,28.11-23.07,45.65-11.74,14.39-27.48,29.4-42.12,40.17l-.16.11c-.84.63-1.31,1.6-1.3,2.65.02,1.04.53,2.02,1.38,2.63,14.77,10.56,28.79,23,40.55,35.98.03.04.07.08.11.11Z"/>
      <path class="cls-2" d="M226.64,351.29c-.11-1.73-.23-3.53-.23-5.22v-.12c-.09-2.93-.09-6.1-.01-9.96v-.12c0-2.29-1.65-4.79-4.75-5.14-.18-.02-.36-.03-.53-.03h-.23c-5.19.25-10.42.38-15.55.38-6.9,0-13.71-.23-20.23-.67-.18-.02-.36-.03-.52-.03-1.56,0-2.97.61-3.97,1.71-.98,1.09-1.45,2.52-1.32,4.03.12,1.52.23,3.15.32,4.83.28,5.35.32,10.82.11,16.23-.08,1.48.41,2.87,1.38,3.91.99,1.08,2.39,1.67,3.92,1.67.22,0,.45,0,.65-.04,1.07-.09,2.31-.2,3.78-.31,7.19-.6,15.22-.89,25.29-.89,2.25,0,4.62.02,7.26.04h.05c1.16,0,2.28-.42,3.15-1.18l.07-.07c1.04-.91,1.63-2.23,1.62-3.61-.02-1.83-.14-3.65-.26-5.41ZM214.74,355.01c-10.25,0-18.44.29-25.79.91-.96.07-1.84.15-2.67.22.16-5.2.11-10.42-.16-15.53-.07-1.24-.14-2.45-.22-3.63,6.3.4,12.83.61,19.44.61,4.79,0,9.67-.11,14.52-.32-.05,3.34-.04,6.18.04,8.84,0,1.89.13,3.78.25,5.61.07,1.14.15,2.24.19,3.32-1.99-.02-3.84-.03-5.6-.03Z"/>
      <path class="cls-3" d="M220.34,355.04c-1.99-.02-3.84-.03-5.6-.03-10.25,0-18.44.29-25.79.91-.96.07-1.84.15-2.67.22.16-5.2.11-10.42-.16-15.53-.07-1.24-.14-2.45-.22-3.63,6.3.4,12.83.61,19.44.61,4.79,0,9.67-.11,14.52-.32-.05,3.34-.04,6.18.04,8.84,0,1.89.13,3.78.25,5.61.07,1.14.15,2.24.19,3.32Z"/>
      <path class="cls-2" d="M495.33,264.81c-.11-1.74-.23-3.53-.24-5.22,0-.04,0-.09,0-.13-.08-2.93-.09-6.09,0-9.96v-.12c-.01-2.29-1.65-4.8-4.75-5.14-.18-.02-.35-.03-.53-.03-.08,0-.15,0-.23,0-5.19.25-10.42.37-15.55.37-6.9,0-13.72-.23-20.23-.67-.18-.02-.36-.02-.52-.02-1.56,0-2.97.61-3.97,1.71-.98,1.08-1.45,2.52-1.32,4.02.12,1.53.23,3.15.31,4.84.28,5.35.32,10.82.11,16.23-.08,1.48.4,2.87,1.37,3.91,1,1.07,2.39,1.66,3.92,1.66.22,0,.45-.01.65-.03,1.08-.1,2.32-.2,3.79-.31,7.19-.61,15.22-.89,25.29-.89,2.25,0,4.62.01,7.26.04h.05c1.16,0,2.28-.42,3.15-1.19l.07-.07c1.04-.91,1.63-2.23,1.61-3.61-.02-1.82-.14-3.64-.25-5.4ZM483.42,268.53c-10.24,0-18.44.29-25.78.91-.96.07-1.84.14-2.67.22.16-5.2.11-10.41-.16-15.52-.06-1.24-.14-2.46-.22-3.63,6.3.4,12.84.6,19.45.6,4.79,0,9.67-.11,14.52-.32-.05,3.34-.04,6.18.03,8.84,0,1.89.13,3.78.25,5.61.08,1.14.15,2.23.19,3.31-1.99-.02-3.83-.02-5.6-.02Z"/>
      <path class="cls-2" d="M67.68,275.08h.05c1.16,0,2.28-.42,3.15-1.19l.07-.07c1.04-.91,1.63-2.23,1.61-3.61-.02-1.82-.14-3.64-.25-5.4-.11-1.74-.23-3.53-.24-5.22,0-.04,0-.09,0-.13-.08-2.93-.09-6.09,0-9.96v-.12c-.01-2.29-1.65-4.8-4.75-5.14-.18-.02-.35-.03-.53-.03-.08,0-.15,0-.23,0-5.19.25-10.42.37-15.55.37-6.9,0-13.72-.23-20.23-.67-.18-.02-.36-.02-.52-.02-1.56,0-2.97.61-3.97,1.71-.98,1.08-1.45,2.52-1.32,4.02.12,1.53.23,3.15.31,4.84.28,5.35.32,10.82.11,16.23-.08,1.48.4,2.87,1.37,3.91,1,1.07,2.39,1.66,3.92,1.66.22,0,.45-.01.65-.03,1.08-.1,2.32-.2,3.79-.31,7.19-.61,15.22-.89,25.29-.89,2.25,0,4.62.01,7.26.04ZM34.62,269.44c-.96.07-1.84.14-2.67.22.16-5.2.11-10.41-.16-15.52-.06-1.24-.14-2.46-.22-3.63,6.3.4,12.84.6,19.45.6,4.79,0,9.67-.11,14.52-.32-.05,3.34-.04,6.18.03,8.84,0,1.89.13,3.78.25,5.61.08,1.14.15,2.23.19,3.31-1.99-.02-3.83-.02-5.6-.02-10.24,0-18.44.29-25.78.91Z"/>
    </g>
  </g>
</svg>